<?xml version="1.0" encoding="UTF-8" standalone="no"?>
<!-- Generator: Adobe Illustrator 23.0.1, SVG Export Plug-In . SVG Version: 6.00 Build 0)  -->

<svg
   version="1.1"
   id="Capa_1"
   x="0px"
   y="0px"
   viewBox="0 0 498.79999 169.4"
   xml:space="preserve"
   sodipodi:docname="Verde.svg"
   width="498.79999"
   height="169.39999"
   inkscape:version="1.3.1 (91b66b0783, 2023-11-16)"
   xmlns:inkscape="http://www.inkscape.org/namespaces/inkscape"
   xmlns:sodipodi="http://sodipodi.sourceforge.net/DTD/sodipodi-0.dtd"
   xmlns="http://www.w3.org/2000/svg"
   xmlns:svg="http://www.w3.org/2000/svg"
   xmlns:rdf="http://www.w3.org/1999/02/22-rdf-syntax-ns#"
   xmlns:cc="http://creativecommons.org/ns#"
   xmlns:dc="http://purl.org/dc/elements/1.1/"><defs
   id="defs36" /><sodipodi:namedview
   id="namedview36"
   pagecolor="#505050"
   bordercolor="#ffffff"
   borderopacity="1"
   inkscape:showpageshadow="0"
   inkscape:pageopacity="0"
   inkscape:pagecheckerboard="1"
   inkscape:deskcolor="#d1d1d1"
   inkscape:zoom="1.7048387"
   inkscape:cx="244.30464"
   inkscape:cy="80.359508"
   inkscape:window-width="1920"
   inkscape:window-height="934"
   inkscape:window-x="0"
   inkscape:window-y="44"
   inkscape:window-maximized="1"
   inkscape:current-layer="Capa_1" />
<style
   type="text/css"
   id="style1">
	.st0{fill:#00C389;}
	.st1{enable-background:new    ;}
</style>
<title
   id="title1">Verde transparente</title>
<g
   id="Imagotipo"
   transform="translate(-65.7,-71.3)">
	<path
   class="st0"
   d="m 181.9,129.4 c 0,32.1 -26,58.1 -58.1,58.1 -32.1,0 -58.1,-26 -58.1,-58.1 h 21.4 c 0,20.2 16.4,36.7 36.6,36.7 20.2,0 36.7,-16.4 36.7,-36.6 0,-16.1 -10.5,-30.4 -25.9,-35.1 v 35 H 113.1 V 72.3 c 3.5,-0.7 7.1,-1 10.7,-1 32.1,0 58.1,26 58.1,58.1 z"
   id="path1" />
	<path
   class="st0"
   d="m 251.7,187.5 c -32.1,-0.4 -57.7,-26.8 -57.3,-58.8 0.4,-31.5 25.8,-56.9 57.3,-57.3 v 21.4 c -20.2,0 -36.7,16.4 -36.7,36.6 0,20.2 16.4,36.7 36.6,36.7 16.1,0 30.4,-10.5 35.1,-25.9 h -35 v -21.4 h 57.1 c 0.7,3.5 1,7.1 1,10.7 0,32 -26,58 -58.1,58 z"
   id="path2" />
	<path
   class="st0"
   d="m 379.5,71.3 c -32.1,0.4 -57.7,26.8 -57.3,58.8 0.4,31.5 25.8,56.9 57.3,57.3 V 166 c -20.2,0 -36.7,-16.4 -36.7,-36.6 0,-20.2 16.4,-36.7 36.6,-36.7 16.1,0 30.4,10.5 35.1,25.9 h -35 v 21.5 h 57.1 c 0.7,-3.5 1,-7.1 1,-10.7 0.1,-32.1 -25.9,-58.1 -58.1,-58.1 0.1,0 0.1,0 0,0 z"
   id="path3" />
	<path
   class="st0"
   d="m 181.9,129.4 c 0,32.1 -26,58.1 -58.1,58.1 -32.1,0 -58.1,-26 -58.1,-58.1 h 21.4 c 0,20.2 16.4,36.7 36.6,36.7 20.2,0 36.7,-16.4 36.7,-36.6 0,-16.1 -10.5,-30.4 -25.9,-35.1 v 35 H 113.1 V 72.3 c 3.5,-0.7 7.1,-1 10.7,-1 32.1,0 58.1,26 58.1,58.1 z"
   id="path4" />
	<path
   class="st0"
   d="m 251.7,187.5 c -32.1,-0.4 -57.7,-26.8 -57.3,-58.8 0.4,-31.5 25.8,-56.9 57.3,-57.3 v 21.4 c -20.2,0 -36.7,16.4 -36.7,36.6 0,20.2 16.4,36.7 36.6,36.7 16.1,0 30.4,-10.5 35.1,-25.9 h -35 v -21.4 h 57.1 c 0.7,3.5 1,7.1 1,10.7 0,32 -26,58 -58.1,58 z"
   id="path5" />
	<path
   class="st0"
   d="m 379.5,71.3 c -32.1,0.4 -57.7,26.8 -57.3,58.8 0.4,31.5 25.8,56.9 57.3,57.3 V 166 c -20.2,0 -36.7,-16.4 -36.7,-36.6 0,-20.2 16.4,-36.7 36.6,-36.7 16.1,0 30.4,10.5 35.1,25.9 h -35 v 21.5 h 57.1 c 0.7,-3.5 1,-7.1 1,-10.7 0.1,-32.1 -25.9,-58.1 -58.1,-58.1 0.1,0 0.1,0 0,0 z"
   id="path6" />
	<g
   class="st1"
   id="g8">
		<path
   class="st0"
   d="m 76.7,213.2 c 1.6,0 3,0.3 4.2,0.8 1.2,0.5 2.2,1.3 3,2.2 0.8,1 1.4,2 1.8,3.3 0.4,1.3 0.6,2.6 0.6,4 0,1.9 -0.4,3.6 -1.1,5.2 -0.7,1.6 -1.8,2.8 -3.2,3.7 -1.4,0.9 -3.2,1.4 -5.3,1.4 h -8.1 v -20.6 z m -0.1,17.5 c 1.5,0 2.8,-0.3 3.8,-1 1,-0.7 1.7,-1.5 2.1,-2.6 0.5,-1.1 0.7,-2.3 0.7,-3.6 0,-1.3 -0.2,-2.5 -0.7,-3.6 -0.5,-1.1 -1.2,-2 -2.1,-2.6 -1,-0.7 -2.2,-1 -3.8,-1 h -4.7 v 14.5 h 4.7 z"
   id="path7" />
		<path
   class="st0"
   d="m 103.2,231.8 v 0 c -0.7,0.6 -1.5,1.1 -2.6,1.6 -1.1,0.5 -2.2,0.7 -3.4,0.7 -1.6,0 -3,-0.3 -4.3,-1 -1.2,-0.7 -2.2,-1.6 -2.9,-2.8 -0.7,-1.2 -1,-2.5 -1,-4 0,-1.7 0.4,-3.2 1.1,-4.4 0.7,-1.2 1.7,-2.2 2.9,-2.8 1.2,-0.7 2.5,-1 3.9,-1 1.3,0 2.5,0.3 3.5,1 1.1,0.6 1.9,1.5 2.5,2.6 0.6,1.1 0.9,2.4 0.9,3.9 v 1.3 H 92 c 0.2,1.4 0.8,2.5 1.7,3.3 0.9,0.8 2.2,1.2 3.7,1.2 1.1,0 2,-0.2 2.6,-0.6 0.6,-0.4 1.2,-0.8 1.6,-1.2 z m -6.4,-11 c -1.2,0 -2.2,0.3 -3,0.8 -0.9,0.5 -1.4,1.5 -1.7,2.8 h 8.7 v -0.2 c -0.1,-0.7 -0.3,-1.3 -0.7,-1.8 -0.4,-0.5 -0.9,-0.9 -1.4,-1.2 -0.6,-0.3 -1.2,-0.4 -1.9,-0.4 z"
   id="path8" />
	</g>
	<g
   class="st1"
   id="g9">
		<path
   class="st0"
   d="M 107.1,233.8 V 212 h 3 v 21.8 z"
   id="path9" />
	</g>
	<g
   class="st1"
   id="g10">
		<path
   class="st0"
   d="m 127.5,231.8 v 0 c -0.7,0.6 -1.5,1.1 -2.6,1.6 -1.1,0.5 -2.2,0.7 -3.4,0.7 -1.6,0 -3,-0.3 -4.3,-1 -1.2,-0.7 -2.2,-1.6 -2.9,-2.8 -0.7,-1.2 -1,-2.5 -1,-4 0,-1.7 0.4,-3.2 1.1,-4.4 0.7,-1.2 1.7,-2.2 2.9,-2.8 1.2,-0.7 2.5,-1 3.9,-1 1.3,0 2.5,0.3 3.5,1 1.1,0.6 1.9,1.5 2.5,2.6 0.6,1.1 0.9,2.4 0.9,3.9 v 1.3 h -11.8 c 0.2,1.4 0.8,2.5 1.7,3.3 0.9,0.8 2.2,1.2 3.7,1.2 1.1,0 2,-0.2 2.6,-0.6 0.6,-0.4 1.2,-0.8 1.6,-1.2 z m -6.4,-11 c -1.2,0 -2.2,0.3 -3,0.8 -0.9,0.5 -1.4,1.5 -1.7,2.8 h 8.7 v -0.2 c -0.1,-0.7 -0.3,-1.3 -0.7,-1.8 -0.4,-0.5 -0.9,-0.9 -1.4,-1.2 -0.6,-0.3 -1.2,-0.4 -1.9,-0.4 z"
   id="path10" />
	</g>
	<g
   class="st1"
   id="g20">
		<path
   class="st0"
   d="m 133.4,236.4 c 0.6,0.5 1.3,0.8 2.2,1.1 0.9,0.3 1.7,0.4 2.6,0.4 1.6,0 2.8,-0.4 3.6,-1.2 0.8,-0.8 1.3,-1.9 1.3,-3.5 v -1.9 c -0.3,0.5 -0.7,0.9 -1.2,1.3 -0.5,0.4 -1.1,0.8 -1.8,1 -0.7,0.3 -1.4,0.4 -2.1,0.4 -1.4,0 -2.7,-0.3 -3.9,-1 -1.2,-0.7 -2.1,-1.6 -2.8,-2.9 -0.7,-1.2 -1,-2.6 -1,-4.1 0,-1.6 0.3,-3 1,-4.2 0.7,-1.2 1.6,-2.2 2.7,-2.8 1.1,-0.7 2.4,-1 3.8,-1 1.2,0 2.2,0.3 3.1,0.8 0.9,0.5 1.6,1.1 2.1,1.7 v -2.1 h 3 v 14.5 c 0,1.8 -0.4,3.3 -1.1,4.5 -0.7,1.2 -1.7,2 -2.9,2.5 -1.2,0.5 -2.5,0.8 -3.9,0.8 -1.1,0 -2.2,-0.2 -3.3,-0.5 -1.1,-0.3 -2,-0.8 -2.6,-1.3 z m 4.9,-15.6 c -0.9,0 -1.8,0.2 -2.5,0.7 -0.7,0.5 -1.3,1.1 -1.7,1.9 -0.4,0.8 -0.6,1.7 -0.6,2.7 0,1 0.2,1.9 0.6,2.7 0.4,0.8 1,1.4 1.7,1.9 0.7,0.5 1.6,0.7 2.5,0.7 1,0 1.8,-0.2 2.6,-0.7 0.7,-0.5 1.3,-1.1 1.7,-1.9 0.4,-0.8 0.6,-1.7 0.6,-2.7 0,-1 -0.2,-1.9 -0.6,-2.7 -0.4,-0.8 -1,-1.4 -1.7,-1.9 -0.7,-0.5 -1.6,-0.7 -2.6,-0.7 z"
   id="path11" />
		<path
   class="st0"
   d="m 164.8,218.3 v 15.5 h -3.1 v -2.4 c -0.5,0.6 -1.2,1.3 -2.1,1.8 -0.9,0.6 -2,0.9 -3.2,0.9 -1.3,0 -2.5,-0.3 -3.5,-1 -1.1,-0.7 -1.9,-1.6 -2.5,-2.9 -0.6,-1.2 -0.9,-2.6 -0.9,-4.2 0,-1.6 0.3,-3 1,-4.2 0.6,-1.2 1.5,-2.1 2.7,-2.8 1.1,-0.7 2.4,-1 3.9,-1 1.1,0 2,0.2 2.8,0.7 0.8,0.5 1.5,1 2,1.6 v -2 z m -7.7,13 c 0.9,0 1.8,-0.2 2.5,-0.7 0.7,-0.5 1.3,-1.1 1.6,-1.9 0.4,-0.8 0.6,-1.7 0.6,-2.7 0,-1 -0.2,-1.9 -0.6,-2.6 -0.4,-0.7 -0.9,-1.4 -1.6,-1.9 -0.7,-0.5 -1.5,-0.7 -2.5,-0.7 -0.9,0 -1.7,0.2 -2.4,0.7 -0.7,0.5 -1.3,1.1 -1.6,1.9 -0.4,0.8 -0.6,1.7 -0.6,2.7 0,1 0.2,1.9 0.6,2.7 0.4,0.8 0.9,1.4 1.6,1.9 0.7,0.4 1.5,0.6 2.4,0.6 z"
   id="path12" />
		<path
   class="st0"
   d="m 171,226 c 0,1 0.2,1.9 0.7,2.7 0.5,0.8 1.1,1.4 1.8,1.9 0.8,0.5 1.6,0.7 2.4,0.7 1,0 1.8,-0.3 2.6,-0.8 0.7,-0.5 1.3,-1 1.8,-1.6 l 1.7,2.1 c -0.4,0.5 -0.9,1 -1.5,1.5 -0.6,0.5 -1.4,0.8 -2.2,1.1 -0.8,0.3 -1.7,0.4 -2.6,0.4 -1.4,0 -2.7,-0.4 -3.8,-1.1 -1.1,-0.7 -2,-1.7 -2.7,-2.9 -0.7,-1.2 -1,-2.6 -1,-4.1 0,-1.5 0.3,-2.9 1,-4.1 0.7,-1.2 1.6,-2.2 2.7,-2.9 1.1,-0.7 2.4,-1.1 3.8,-1.1 1.4,0 2.7,0.3 3.8,0.9 1.1,0.6 2,1.3 2.5,2.3 l -1.7,2.1 c -0.5,-0.7 -1.1,-1.2 -1.9,-1.7 -0.8,-0.5 -1.6,-0.7 -2.4,-0.7 -0.9,0 -1.8,0.2 -2.5,0.7 -0.7,0.5 -1.3,1.1 -1.8,1.9 -0.5,0.8 -0.7,1.7 -0.7,2.7 z"
   id="path13" />
		<path
   class="st0"
   d="m 186.8,215 c -0.7,0 -1.2,-0.2 -1.5,-0.5 -0.3,-0.4 -0.5,-0.8 -0.5,-1.4 0,-0.5 0.2,-0.9 0.5,-1.3 0.3,-0.4 0.8,-0.6 1.5,-0.6 0.7,0 1.2,0.2 1.5,0.5 0.3,0.4 0.5,0.8 0.5,1.4 0,0.5 -0.2,0.9 -0.5,1.3 -0.3,0.4 -0.8,0.6 -1.5,0.6 z m 1.6,18.8 h -3 v -15.5 h 3 z"
   id="path14" />
		<path
   class="st0"
   d="m 207.7,226 c 0,1.6 -0.3,3 -1,4.2 -0.7,1.2 -1.6,2.2 -2.8,2.8 -1.2,0.7 -2.5,1 -4,1 -1.5,0 -2.8,-0.3 -4,-1 -1.2,-0.7 -2.1,-1.6 -2.8,-2.8 -0.7,-1.2 -1,-2.6 -1,-4.2 0,-1.6 0.3,-3 1,-4.2 0.7,-1.2 1.6,-2.2 2.8,-2.8 1.2,-0.7 2.5,-1 4,-1 1.5,0 2.8,0.3 4,1 1.2,0.7 2.1,1.6 2.8,2.8 0.7,1.3 1,2.7 1,4.2 z m -3,0 c 0,-1 -0.2,-2 -0.6,-2.8 -0.4,-0.8 -1,-1.4 -1.7,-1.9 -0.7,-0.4 -1.5,-0.7 -2.4,-0.7 -0.9,0 -1.7,0.2 -2.5,0.7 -0.8,0.5 -1.3,1.1 -1.7,1.9 -0.4,0.8 -0.6,1.7 -0.6,2.8 0,1 0.2,1.9 0.6,2.7 0.4,0.8 1,1.4 1.7,1.9 0.7,0.5 1.6,0.7 2.5,0.7 0.9,0 1.7,-0.2 2.4,-0.7 0.7,-0.5 1.3,-1.1 1.7,-1.9 0.4,-0.7 0.6,-1.6 0.6,-2.7 z m -5.4,-10.3 -1,-1.5 4.2,-3.7 1.9,2.4 z"
   id="path15" />
		<path
   class="st0"
   d="m 219.1,218 c 1.4,0 2.5,0.3 3.2,0.9 0.7,0.6 1.3,1.3 1.6,2.3 0.3,1 0.5,2 0.5,3.2 v 9.4 h -3 v -9.2 c 0,-0.7 -0.1,-1.4 -0.3,-2 -0.2,-0.6 -0.5,-1 -1,-1.4 -0.5,-0.3 -1.1,-0.5 -2,-0.4 -0.8,0 -1.5,0.2 -2.1,0.5 -0.6,0.3 -1.1,0.8 -1.4,1.3 -0.4,0.5 -0.5,1.2 -0.5,1.8 v 9.4 h -3 v -15.5 h 3 v 2.4 c 0.5,-0.7 1.2,-1.4 2.1,-1.9 0.8,-0.5 1.8,-0.8 2.9,-0.8 z"
   id="path16" />
		<path
   class="st0"
   d="m 246.7,213 c 1.2,0 2.3,0.2 3.3,0.5 1,0.3 1.9,0.8 2.6,1.3 0.8,0.5 1.4,1.1 1.8,1.7 l -2.1,2.1 c -0.8,-0.7 -1.6,-1.4 -2.6,-1.8 -0.9,-0.5 -2,-0.7 -3.1,-0.7 -1.4,0 -2.7,0.3 -3.8,1 -1.1,0.6 -2,1.5 -2.7,2.6 -0.7,1.1 -1,2.4 -1,3.8 0,1.4 0.3,2.7 1,3.8 0.7,1.1 1.6,2 2.8,2.7 1.1,0.7 2.4,1 3.8,1 1,0 1.9,-0.2 2.8,-0.6 0.9,-0.4 1.6,-0.9 2.1,-1.6 0.5,-0.7 0.8,-1.4 0.8,-2.3 0,-0.1 0,-0.2 0,-0.2 h -5.9 v -3.1 h 9.1 c 0,0.3 0.1,0.6 0.1,0.9 0,0.3 0,0.6 0,0.9 0,1.1 -0.2,2.1 -0.5,3.2 -0.3,1.1 -0.8,1.9 -1.5,2.7 -0.8,1 -1.8,1.8 -3,2.3 -1.2,0.6 -2.6,0.9 -4.1,0.9 -1.5,0 -2.9,-0.3 -4.2,-0.8 -1.3,-0.5 -2.4,-1.3 -3.4,-2.3 -1,-1 -1.7,-2.1 -2.3,-3.4 -0.5,-1.3 -0.8,-2.7 -0.8,-4.2 0,-1.5 0.3,-2.9 0.8,-4.1 0.5,-1.3 1.3,-2.4 2.3,-3.3 1,-1 2.1,-1.7 3.4,-2.2 1.5,-0.5 2.9,-0.8 4.3,-0.8 z"
   id="path17" />
		<path
   class="st0"
   d="m 272.6,231.8 v 0 c -0.7,0.6 -1.5,1.1 -2.6,1.6 -1.1,0.5 -2.2,0.7 -3.4,0.7 -1.6,0 -3,-0.3 -4.3,-1 -1.2,-0.7 -2.2,-1.6 -2.9,-2.8 -0.7,-1.2 -1,-2.5 -1,-4 0,-1.7 0.4,-3.2 1.1,-4.4 0.7,-1.2 1.7,-2.2 2.9,-2.8 1.2,-0.7 2.5,-1 3.9,-1 1.3,0 2.5,0.3 3.5,1 1.1,0.6 1.9,1.5 2.5,2.6 0.6,1.1 0.9,2.4 0.9,3.9 v 1.3 h -11.8 c 0.2,1.4 0.8,2.5 1.7,3.3 0.9,0.8 2.2,1.2 3.7,1.2 1.1,0 2,-0.2 2.6,-0.6 0.6,-0.4 1.2,-0.8 1.6,-1.2 z m -6.3,-11 c -1.2,0 -2.2,0.3 -3,0.8 -0.9,0.5 -1.4,1.5 -1.7,2.8 h 8.7 v -0.2 c -0.1,-0.7 -0.3,-1.3 -0.7,-1.8 -0.4,-0.5 -0.9,-0.9 -1.4,-1.2 -0.7,-0.3 -1.3,-0.4 -1.9,-0.4 z"
   id="path18" />
		<path
   class="st0"
   d="m 284.7,218 c 1.4,0 2.5,0.3 3.2,0.9 0.7,0.6 1.3,1.3 1.6,2.3 0.3,1 0.5,2 0.5,3.2 v 9.4 h -3 v -9.2 c 0,-0.7 -0.1,-1.4 -0.3,-2 -0.2,-0.6 -0.5,-1 -1,-1.4 -0.5,-0.3 -1.1,-0.5 -2,-0.4 -0.8,0 -1.5,0.2 -2.1,0.5 -0.6,0.3 -1.1,0.8 -1.4,1.3 -0.4,0.5 -0.5,1.2 -0.5,1.8 v 9.4 h -3 v -15.5 h 3 v 2.4 c 0.5,-0.7 1.2,-1.4 2.1,-1.9 0.8,-0.5 1.8,-0.8 2.9,-0.8 z"
   id="path19" />
		<path
   class="st0"
   d="m 307.4,231.8 v 0 c -0.7,0.6 -1.5,1.1 -2.6,1.6 -1.1,0.5 -2.2,0.7 -3.4,0.7 -1.6,0 -3,-0.3 -4.3,-1 -1.2,-0.7 -2.2,-1.6 -2.9,-2.8 -0.7,-1.2 -1,-2.5 -1,-4 0,-1.7 0.4,-3.2 1.1,-4.4 0.7,-1.2 1.7,-2.2 2.9,-2.8 1.2,-0.7 2.5,-1 3.9,-1 1.3,0 2.5,0.3 3.5,1 1.1,0.6 1.9,1.5 2.5,2.6 0.6,1.1 0.9,2.4 0.9,3.9 v 1.3 h -11.8 c 0.2,1.4 0.8,2.5 1.7,3.3 0.9,0.8 2.2,1.2 3.7,1.2 1.1,0 2,-0.2 2.6,-0.6 0.6,-0.4 1.2,-0.8 1.6,-1.2 z m -6.4,-11 c -1.2,0 -2.2,0.3 -3,0.8 -0.9,0.5 -1.4,1.5 -1.7,2.8 h 8.7 v -0.2 c -0.1,-0.7 -0.3,-1.3 -0.7,-1.8 -0.4,-0.5 -0.9,-0.9 -1.4,-1.2 -0.6,-0.3 -1.2,-0.4 -1.9,-0.4 z"
   id="path20" />
	</g>
	<g
   class="st1"
   id="g21">
		<path
   class="st0"
   d="m 320,221.6 c -0.2,-0.1 -0.4,-0.2 -0.7,-0.3 -0.3,-0.1 -0.6,-0.1 -0.9,-0.1 -0.6,0 -1.2,0.2 -1.9,0.5 -0.6,0.3 -1.1,0.8 -1.5,1.4 -0.4,0.6 -0.6,1.3 -0.6,2.1 v 8.5 h -3.1 v -15.5 h 3.1 v 2.9 c 0.4,-0.9 1.1,-1.7 2,-2.3 0.9,-0.6 1.8,-0.9 2.8,-0.9 0.7,0 1.3,0.1 1.7,0.3 z"
   id="path21" />
	</g>
	<g
   class="st1"
   id="g33">
		<path
   class="st0"
   d="m 336.9,218.3 v 15.5 h -3.1 v -2.4 c -0.5,0.6 -1.2,1.3 -2.1,1.8 -0.9,0.6 -2,0.9 -3.2,0.9 -1.3,0 -2.5,-0.3 -3.5,-1 -1.1,-0.7 -1.9,-1.6 -2.5,-2.9 -0.6,-1.2 -0.9,-2.6 -0.9,-4.2 0,-1.6 0.3,-3 1,-4.2 0.6,-1.2 1.5,-2.1 2.7,-2.8 1.2,-0.7 2.4,-1 3.9,-1 1.1,0 2,0.2 2.8,0.7 0.8,0.5 1.5,1 2,1.6 v -2 z m -7.6,13 c 0.9,0 1.8,-0.2 2.5,-0.7 0.7,-0.5 1.3,-1.1 1.6,-1.9 0.4,-0.8 0.6,-1.7 0.6,-2.7 0,-1 -0.2,-1.9 -0.6,-2.6 -0.4,-0.7 -0.9,-1.4 -1.6,-1.9 -0.7,-0.5 -1.5,-0.7 -2.5,-0.7 -0.9,0 -1.7,0.2 -2.4,0.7 -0.7,0.5 -1.3,1.1 -1.6,1.9 -0.4,0.8 -0.6,1.7 -0.6,2.7 0,1 0.2,1.9 0.6,2.7 0.4,0.8 0.9,1.4 1.6,1.9 0.7,0.4 1.5,0.6 2.4,0.6 z"
   id="path22" />
		<path
   class="st0"
   d="M 341.2,233.8 V 212 h 3 v 21.8 z"
   id="path23" />
		<path
   class="st0"
   d="m 371.3,212 v 21.8 h -3 v -2.2 c -0.5,0.6 -1.1,1.2 -2,1.7 -0.9,0.5 -1.9,0.8 -3,0.8 -1.4,0 -2.6,-0.3 -3.8,-1 -1.2,-0.7 -2,-1.6 -2.6,-2.9 -0.6,-1.2 -1,-2.6 -1,-4.1 0,-1.6 0.3,-3 1,-4.2 0.6,-1.2 1.5,-2.2 2.6,-2.8 1.1,-0.7 2.3,-1 3.7,-1 1.1,0 2.1,0.2 3,0.7 0.9,0.5 1.6,1 2.1,1.6 V 212 Z m -7.7,19.5 c 0.9,0 1.8,-0.2 2.5,-0.7 0.7,-0.5 1.3,-1.1 1.6,-1.9 0.3,-0.8 0.6,-1.7 0.6,-2.8 0,-1 -0.2,-2 -0.6,-2.8 -0.4,-0.8 -0.9,-1.5 -1.6,-1.9 -0.7,-0.5 -1.5,-0.7 -2.5,-0.7 -0.9,0 -1.7,0.2 -2.4,0.7 -0.7,0.5 -1.3,1.1 -1.7,1.9 -0.4,0.8 -0.6,1.7 -0.6,2.8 0,1 0.2,1.9 0.6,2.8 0.4,0.9 1,1.5 1.7,1.9 0.7,0.4 1.5,0.7 2.4,0.7 z"
   id="path24" />
		<path
   class="st0"
   d="m 388.7,231.8 v 0 c -0.7,0.6 -1.5,1.1 -2.6,1.6 -1.1,0.5 -2.2,0.7 -3.4,0.7 -1.6,0 -3,-0.3 -4.3,-1 -1.3,-0.7 -2.2,-1.6 -2.9,-2.8 -0.7,-1.2 -1,-2.5 -1,-4 0,-1.7 0.4,-3.2 1.1,-4.4 0.7,-1.2 1.7,-2.2 2.9,-2.8 1.2,-0.7 2.5,-1 3.9,-1 1.3,0 2.5,0.3 3.5,1 1.1,0.6 1.9,1.5 2.5,2.6 0.6,1.1 0.9,2.4 0.9,3.9 v 1.3 h -11.8 c 0.2,1.4 0.8,2.5 1.7,3.3 1,0.8 2.2,1.2 3.7,1.2 1.1,0 2,-0.2 2.6,-0.6 0.6,-0.4 1.2,-0.8 1.6,-1.2 z m -6.3,-11 c -1.2,0 -2.2,0.3 -3,0.8 -0.9,0.5 -1.4,1.5 -1.7,2.8 h 8.7 v -0.2 c -0.1,-0.7 -0.3,-1.3 -0.7,-1.8 -0.4,-0.5 -0.9,-0.9 -1.4,-1.2 -0.5,-0.3 -1.3,-0.4 -1.9,-0.4 z"
   id="path25" />
		<path
   class="st0"
   d="m 401.7,213.2 h 13 v 3.1 h -9.8 v 5.4 h 8.2 v 3.1 h -8.2 v 6 h 9.8 v 3.1 h -13 z"
   id="path26" />
		<path
   class="st0"
   d="m 427.9,222.4 c -0.5,-0.5 -1.2,-1 -1.9,-1.4 -0.7,-0.4 -1.3,-0.5 -1.9,-0.5 -0.4,0 -0.8,0 -1.2,0.1 -0.4,0.1 -0.7,0.3 -1,0.5 -0.3,0.3 -0.4,0.7 -0.4,1.2 0,0.7 0.3,1.2 1,1.5 0.7,0.3 1.4,0.6 2.3,0.8 0.8,0.2 1.6,0.5 2.4,0.8 0.8,0.3 1.4,0.8 1.9,1.4 0.5,0.6 0.8,1.5 0.8,2.6 0,1 -0.3,1.8 -0.8,2.5 -0.5,0.7 -1.2,1.2 -2.1,1.6 -0.9,0.4 -1.8,0.5 -2.7,0.5 -1.1,0 -2.2,-0.2 -3.3,-0.6 -1.1,-0.4 -2,-1.1 -2.8,-2.1 l 2.1,-1.8 c 0.5,0.6 1.1,1.1 1.8,1.4 0.7,0.3 1.5,0.5 2.5,0.5 0.4,0 0.7,-0.1 1.1,-0.2 0.4,-0.1 0.7,-0.3 1,-0.6 0.3,-0.3 0.4,-0.7 0.4,-1.2 0,-0.5 -0.1,-0.8 -0.4,-1.1 -0.3,-0.3 -0.7,-0.5 -1.1,-0.6 -0.5,-0.2 -1,-0.3 -1.6,-0.5 -0.8,-0.2 -1.7,-0.5 -2.5,-0.9 -0.8,-0.3 -1.5,-0.8 -2,-1.5 -0.5,-0.7 -0.8,-1.5 -0.8,-2.6 0,-0.9 0.3,-1.7 0.8,-2.4 0.5,-0.7 1.2,-1.2 2,-1.5 0.8,-0.4 1.7,-0.5 2.7,-0.5 0.9,0 1.9,0.2 3,0.6 1.1,0.4 2,1 2.7,1.9 z"
   id="path27" />
		<path
   class="st0"
   d="m 438,233.8 h -3 v -12.5 h -3.2 v -2.9 h 3.2 v -3.9 h 3 v 3.9 h 3.6 v 2.9 H 438 Z"
   id="path28" />
		<path
   class="st0"
   d="m 454.9,227.6 v -9.3 h 3 v 15.5 h -3 v -2.5 c -0.5,0.7 -1.1,1.4 -2,1.9 -0.9,0.6 -1.9,0.8 -3.1,0.8 -1.6,0 -2.9,-0.5 -3.9,-1.6 -1,-1.1 -1.5,-2.6 -1.5,-4.6 v -9.5 h 3 v 8.7 c 0,0.8 0.1,1.5 0.4,2.2 0.2,0.7 0.6,1.2 1.2,1.6 0.5,0.4 1.2,0.6 2.1,0.6 1.1,0 2,-0.3 2.7,-1 0.7,-0.6 1.1,-1.6 1.1,-2.8 z"
   id="path29" />
		<path
   class="st0"
   d="m 476.7,212 v 21.8 h -3 v -2.2 c -0.5,0.6 -1.1,1.2 -2,1.7 -0.9,0.5 -1.9,0.8 -3,0.8 -1.4,0 -2.6,-0.3 -3.8,-1 -1.2,-0.7 -2,-1.6 -2.6,-2.9 -0.6,-1.2 -1,-2.6 -1,-4.1 0,-1.6 0.3,-3 1,-4.2 0.6,-1.2 1.5,-2.2 2.6,-2.8 1.1,-0.7 2.3,-1 3.7,-1 1.1,0 2.1,0.2 3,0.7 0.9,0.5 1.6,1 2.1,1.6 V 212 Z m -7.7,19.5 c 0.9,0 1.8,-0.2 2.5,-0.7 0.7,-0.5 1.3,-1.1 1.6,-1.9 0.3,-0.8 0.6,-1.7 0.6,-2.8 0,-1 -0.2,-2 -0.6,-2.8 -0.4,-0.8 -0.9,-1.5 -1.6,-1.9 -0.7,-0.5 -1.5,-0.7 -2.5,-0.7 -0.9,0 -1.7,0.2 -2.4,0.7 -0.7,0.5 -1.3,1.1 -1.7,1.9 -0.4,0.8 -0.6,1.7 -0.6,2.8 0,1 0.2,1.9 0.6,2.8 0.4,0.9 1,1.5 1.7,1.9 0.7,0.4 1.5,0.7 2.4,0.7 z"
   id="path30" />
		<path
   class="st0"
   d="m 482.9,215 c -0.7,0 -1.2,-0.2 -1.5,-0.5 -0.3,-0.4 -0.5,-0.8 -0.5,-1.4 0,-0.5 0.2,-0.9 0.5,-1.3 0.3,-0.4 0.8,-0.6 1.5,-0.6 0.7,0 1.2,0.2 1.5,0.5 0.3,0.4 0.5,0.8 0.5,1.4 0,0.5 -0.2,0.9 -0.5,1.3 -0.3,0.4 -0.8,0.6 -1.5,0.6 z m 1.5,18.8 h -3 v -15.5 h 3 z"
   id="path31" />
		<path
   class="st0"
   d="m 503.4,218.3 v 15.5 h -3.1 v -2.4 c -0.5,0.6 -1.2,1.3 -2.1,1.8 -0.9,0.6 -2,0.9 -3.2,0.9 -1.3,0 -2.5,-0.3 -3.5,-1 -1.1,-0.7 -1.9,-1.6 -2.5,-2.9 -0.6,-1.2 -0.9,-2.6 -0.9,-4.2 0,-1.6 0.3,-3 1,-4.2 0.6,-1.2 1.5,-2.1 2.7,-2.8 1.2,-0.7 2.4,-1 3.9,-1 1.1,0 2,0.2 2.8,0.7 0.8,0.5 1.5,1 2,1.6 v -2 z m -7.6,13 c 0.9,0 1.8,-0.2 2.5,-0.7 0.7,-0.5 1.3,-1.1 1.6,-1.9 0.4,-0.8 0.6,-1.7 0.6,-2.7 0,-1 -0.2,-1.9 -0.6,-2.6 -0.4,-0.7 -0.9,-1.4 -1.6,-1.9 -0.7,-0.5 -1.5,-0.7 -2.5,-0.7 -0.9,0 -1.7,0.2 -2.4,0.7 -0.7,0.5 -1.3,1.1 -1.6,1.9 -0.4,0.8 -0.6,1.7 -0.6,2.7 0,1 0.2,1.9 0.6,2.7 0.4,0.8 0.9,1.4 1.6,1.9 0.7,0.4 1.5,0.6 2.4,0.6 z"
   id="path32" />
		<path
   class="st0"
   d="m 515.8,218 c 1.4,0 2.5,0.3 3.2,0.9 0.8,0.6 1.3,1.3 1.6,2.3 0.3,1 0.5,2 0.5,3.2 v 9.4 h -3 v -9.2 c 0,-0.7 -0.1,-1.4 -0.3,-2 -0.2,-0.6 -0.5,-1 -1,-1.4 -0.5,-0.3 -1.1,-0.5 -2,-0.4 -0.8,0 -1.5,0.2 -2.1,0.5 -0.6,0.3 -1.1,0.8 -1.4,1.3 -0.4,0.5 -0.5,1.2 -0.5,1.8 v 9.4 h -3 v -15.5 h 3 v 2.4 c 0.5,-0.7 1.2,-1.4 2.1,-1.9 0.8,-0.5 1.8,-0.8 2.9,-0.8 z"
   id="path33" />
	</g>
	<g
   class="st1"
   id="g34">
		<path
   class="st0"
   d="m 530.1,233.8 h -3 v -12.5 h -3.2 v -2.9 h 3.2 v -3.9 h 3 v 3.9 h 3.6 v 2.9 h -3.6 z"
   id="path34" />
	</g>
	<g
   class="st1"
   id="g36">
		<path
   class="st0"
   d="m 549.6,231.8 v 0 c -0.7,0.6 -1.5,1.1 -2.6,1.6 -1.1,0.5 -2.2,0.7 -3.4,0.7 -1.6,0 -3,-0.3 -4.3,-1 -1.2,-0.7 -2.2,-1.6 -2.9,-2.8 -0.7,-1.2 -1,-2.5 -1,-4 0,-1.7 0.4,-3.2 1.1,-4.4 0.7,-1.2 1.7,-2.2 2.9,-2.8 1.2,-0.7 2.5,-1 3.9,-1 1.3,0 2.5,0.3 3.5,1 1.1,0.6 1.9,1.5 2.5,2.6 0.6,1.1 0.9,2.4 0.9,3.9 v 1.3 h -11.8 c 0.2,1.4 0.8,2.5 1.7,3.3 1,0.8 2.2,1.2 3.7,1.2 1.1,0 2,-0.2 2.6,-0.6 0.7,-0.4 1.2,-0.8 1.6,-1.2 z m -6.3,-11 c -1.2,0 -2.2,0.3 -3,0.8 -0.9,0.5 -1.4,1.5 -1.7,2.8 h 8.7 v -0.2 c -0.1,-0.7 -0.3,-1.3 -0.7,-1.8 -0.4,-0.5 -0.9,-0.9 -1.4,-1.2 -0.7,-0.3 -1.3,-0.4 -1.9,-0.4 z"
   id="path35" />
		<path
   class="st0"
   d="m 562.5,222.4 c -0.5,-0.5 -1.2,-1 -1.9,-1.4 -0.7,-0.4 -1.3,-0.5 -1.9,-0.5 -0.4,0 -0.8,0 -1.2,0.1 -0.4,0.1 -0.7,0.3 -1,0.5 -0.3,0.3 -0.4,0.7 -0.4,1.2 0,0.7 0.3,1.2 1,1.5 0.6,0.3 1.4,0.6 2.3,0.8 0.8,0.2 1.6,0.5 2.4,0.8 0.8,0.3 1.4,0.8 1.9,1.4 0.5,0.6 0.8,1.5 0.8,2.6 0,1 -0.3,1.8 -0.8,2.5 -0.5,0.7 -1.2,1.2 -2.1,1.6 -0.9,0.4 -1.8,0.5 -2.7,0.5 -1.1,0 -2.2,-0.2 -3.3,-0.6 -1.1,-0.4 -2,-1.1 -2.8,-2.1 l 2.1,-1.8 c 0.5,0.6 1.1,1.1 1.8,1.4 0.7,0.3 1.5,0.5 2.5,0.5 0.4,0 0.7,-0.1 1.1,-0.2 0.4,-0.1 0.7,-0.3 1,-0.6 0.3,-0.3 0.4,-0.7 0.4,-1.2 0,-0.5 -0.1,-0.8 -0.4,-1.1 -0.3,-0.3 -0.7,-0.5 -1.1,-0.6 -0.5,-0.2 -1,-0.3 -1.6,-0.5 -0.8,-0.2 -1.7,-0.5 -2.5,-0.9 -0.8,-0.3 -1.5,-0.8 -2,-1.5 -0.5,-0.7 -0.8,-1.5 -0.8,-2.6 0,-0.9 0.3,-1.7 0.8,-2.4 0.5,-0.7 1.2,-1.2 2,-1.5 0.8,-0.4 1.7,-0.5 2.7,-0.5 0.9,0 1.9,0.2 3,0.6 1.1,0.4 2,1 2.7,1.9 z"
   id="path36" />
	</g>
</g>
<metadata
   id="metadata36"><rdf:RDF><cc:Work
       rdf:about=""><dc:title>Verde transparente</dc:title></cc:Work></rdf:RDF></metadata></svg>
