<?xml version="1.0" encoding="UTF-8" standalone="no"?>
<svg
   version="1.1"
   viewBox="0 0 564.84515 250.99454"
   id="svg90"
   sodipodi:docname="ts.svg"
   width="564.84515"
   height="250.99454"
   inkscape:version="1.3.1 (91b66b0783, 2023-11-16)"
   xmlns:inkscape="http://www.inkscape.org/namespaces/inkscape"
   xmlns:sodipodi="http://sodipodi.sourceforge.net/DTD/sodipodi-0.dtd"
   xmlns="http://www.w3.org/2000/svg"
   xmlns:svg="http://www.w3.org/2000/svg">
  <defs
     id="defs90" />
  <sodipodi:namedview
     id="namedview90"
     pagecolor="#505050"
     bordercolor="#ffffff"
     borderopacity="1"
     inkscape:showpageshadow="0"
     inkscape:pageopacity="0"
     inkscape:pagecheckerboard="1"
     inkscape:deskcolor="#d1d1d1"
     inkscape:zoom="1.3091116"
     inkscape:cx="374.68157"
     inkscape:cy="103.12337"
     inkscape:window-width="1920"
     inkscape:window-height="934"
     inkscape:window-x="0"
     inkscape:window-y="44"
     inkscape:window-maximized="1"
     inkscape:current-layer="svg90" />
  <path
     fill="#000000"
     d="m 528.02673,43.175013 c 12.47,2.38 11.13,21.96 -1.62,22.53 -4.82,0.21 -8.68,-2.53 -10.02,-7.24 q -1.96,-6.92 2.74,-13.03 a 2.53,2.53 0 0 1 1.57,-0.95 c 3.22,-0.57 4.12,-2.34 5.65,-4.95 q 0.42,-0.73 1.25,-0.55 l 0.32,0.07 a 0.56,0.56 0 0 1 0.41,0.69 l -0.72,2.77 a 0.54,0.53 13 0 0 0.42,0.66 z m 5.2996,9.3557 a 6.34,6.34 0 0 0 -6.2397,-6.4388 l -2.0197,-0.0317 a 6.34,6.34 0 0 0 -6.4388,6.2396 l -0.061,3.8795 a 6.34,6.34 0 0 0 6.2397,6.4388 l 2.0197,0.0317 a 6.34,6.34 0 0 0 6.4388,-6.2396 z"
     id="path52"
     style="stroke:none;stroke-opacity:1" />
  <path
     fill="#000000"
     d="m 496.08673,62.495013 c 3.21,-0.42 5,-0.59 7.25,-3.13 a 0.66,0.66 0 0 1 1.15,0.37 q 0.26,2.21 -1.21,3.12 c -4.24,2.63 -8.34,4.65 -13.01,1.08 -7.86,-6 -5.56,-20.7 6.1,-20.4 2.96,0.08 7.46,0.1 8.04,3.9 q 0.45,2.91 -1.85,1.06 c -3.29,-2.65 -11.99,-3.95 -13.21,2.22 -0.98,4.91 -0.02,12.68 6.74,11.78 z"
     id="path53"
     style="stroke:none;stroke-opacity:1" />
  <path
     fill="#000000"
     d="m 427.14673,62.745013 10.01,0.15 q 0.46,0.01 0.68,0.41 0.2,0.36 0.12,0.79 -0.09,0.47 -0.51,0.69 c -3.18,1.65 -9.26,0.64 -14.4,0.13 q -0.49,-0.05 -0.49,-0.54 l 0.08,-19.69 a 0.78,0.78 0 0 1 0.78,-0.78 l 13.52,-0.04 a 0.89,0.9 2.4 0 1 0.89,0.97 l -0.04,0.57 a 1.25,1.24 1.8 0 1 -1.22,1.14 l -9.93,0.12 q -1.28,0.01 -1.28,1.3 l 0.02,3.7 a 1.59,1.58 1.3 0 0 1.5,1.57 q 4.91,0.28 9.75,0.28 0.86,0 1.26,0.76 0.27,0.52 -0.28,0.72 c -3.18,1.12 -8.13,0.1 -11.27,0.5 a 1.23,1.22 84.5 0 0 -1.06,1.29 l 0.3,4.47 q 0.1,1.47 1.57,1.49 z"
     id="path54"
     style="stroke:none;stroke-opacity:1" />
  <path
     fill="#000000"
     d="m 444.94673,51.455013 c -0.31,3.92 -0.9,9.74 4.33,10.93 2.31,0.52 7.25,1.24 7.35,-2.4 q 0.07,-2.71 -0.01,-4.73 a 0.99,1 88.9 0 1 1,-1.03 h 0.94 a 1.09,1.08 85.7 0 1 1.07,0.93 l 0.82,5.62 a 1.26,1.27 54.9 0 1 -0.13,0.74 c -3.03,5.93 -12.28,5.72 -16.27,0.77 -5.2,-6.46 -2.43,-17.27 6.33,-18.38 3.8,-0.49 6.92,-0.22 9.08,3.11 a 0.56,0.58 25.2 0 1 0.1,0.29 q 0.08,1.4 -1.14,0.79 c -3.62,-1.83 -12.95,-3.26 -13.47,3.36 z"
     id="path55"
     style="stroke:none;stroke-opacity:1" />
  <rect
     fill="#000000"
     x="509.19943"
     y="38.560192"
     transform="rotate(0.6)"
     width="2.9200001"
     height="21.18"
     rx="1.1900001"
     id="rect55"
     style="stroke:none;stroke-opacity:1" />
  <path
     fill="#000000"
     d="m 545.38673,48.365013 q -1.04,-0.69 -1.04,0.55 l 0.01,14.31 q 0,0.99 -0.99,0.98 h -1.7 q -0.78,-0.01 -0.79,-0.78 -0.15,-12.34 0.08,-16.65 0.04,-0.67 0.81,-2.37 0.21,-0.45 0.69,-0.57 c 1.64,-0.4 2.75,-0.11 3.89,1.22 q 5.24,6.17 9.96,12.74 0.57,0.8 0.84,0.82 1.15,0.09 1.16,-1.14 l 0.11,-10.78 a 2.69,2.71 68.3 0 1 0.84,-1.93 l 0.31,-0.3 a 0.75,0.75 0 0 1 1.27,0.49 c 0.34,4.61 0.33,8.41 0.49,13.33 q 0.08,2.6 -0.31,5.24 a 0.7,0.71 87.5 0 1 -0.54,0.58 q -2.91,0.64 -4.57,-1.92 -3.21,-4.97 -6.43,-8.72 c -1.16,-1.34 -2.42,-4 -4.09,-5.1 z"
     id="path56"
     style="stroke:none;stroke-opacity:1" />
  <path
     fill="#000000"
     d="m 362.31673,47.175013 a 3.12,3.12 0 0 1 3.11,-3.13 l 5.38,-0.01 a 10.6,10.98 89.9 0 1 11,10.58 v 0.36 a 10.6,10.98 89.9 0 1 -10.96,10.62 l -5.38,0.01 a 3.12,3.12 0 0 1 -3.13,-3.11 z m 2.48,1.58 -0.08,12.12 a 1.78,1.78 0 0 0 1.77,1.79 l 4.95,0.04 a 7.03,6.05 0.4 0 0 7.07,-6 l 0.02,-3.58 a 7.03,6.05 0.4 0 0 -6.99,-6.1 l -4.95,-0.04 a 1.78,1.78 0 0 0 -1.79,1.77 z"
     id="path57"
     style="stroke:none;stroke-opacity:1" />
  <path
     fill="#000000"
     d="m 390.12673,55.925013 a 0.66,0.67 0 0 0 -0.66,0.67 l -0.02,5.53 a 0.66,0.67 0 0 0 0.66,0.67 l 10.25,0.07 q 1.1,0 1.09,1.1 l -0.01,0.72 q 0,1.02 -1.02,1.02 h -13.53 a 0.73,0.72 0 0 1 -0.73,-0.72 v -18.18 q 0,-2.89 2.89,-2.84 l 10.99,0.17 q 1.11,0.02 1.24,1.13 l 0.05,0.45 a 0.77,0.77 0 0 1 -0.75,0.86 l -9.49,0.17 q -1.5,0.03 -1.53,1.52 l -0.08,3.66 q -0.03,1.64 1.6,1.67 l 9.56,0.14 a 0.79,0.78 0.4 0 1 0.78,0.78 v 0.27 q 0.01,1.05 -1.05,1.06 z"
     id="path58"
     style="stroke:none;stroke-opacity:1" />
  <path
     fill="#000000"
     d="m 476.93673,58.445013 -8.07,0.13 a 1.29,1.31 9.2 0 0 -1.19,0.87 c -0.86,2.53 -1.5,6.57 -5.44,5.68 a 1.06,1.06 0 0 1 -0.52,-1.78 c 2.17,-2.19 2.4,-4.89 3.98,-7.42 1.5,-2.4 2.17,-5.39 3.32,-7.44 q 1.07,-1.89 2.28,-3.68 a 2.04,2.05 46 0 1 3.42,0.05 q 2.43,3.88 4.64,8.51 c 1.51,3.18 2.66,7.25 4.25,10.76 q 0.51,1.12 -0.72,1.08 l -0.53,-0.01 q -1.17,-0.03 -1.74,-1.06 l -2.92,-5.26 a 0.85,0.86 74.8 0 0 -0.76,-0.43 z m -6.86,-4.24 a 1.13,1.13 0 0 0 1.12,1.45 l 3.5,-0.12 a 1.13,1.13 0 0 0 1.03,-1.52 l -1.93,-5.22 a 1.13,1.13 0 0 0 -2.15,0.07 z"
     id="path59"
     style="stroke:none;stroke-opacity:1" />
  <path
     fill="#000000"
     d="m 410.92673,62.745013 8,0.31 a 0.81,0.81 0 0 1 0.78,0.84 l -0.01,0.28 q -0.05,1.25 -1.31,1.28 l -10.26,0.21 a 1.25,1.25 0 0 1 -1.17,-0.78 q -0.56,-1.34 -0.56,-3.16 0,-7.99 0.33,-15.89 a 0.82,0.83 2.7 0 1 0.87,-0.8 l 0.28,0.02 a 1.15,1.15 0 0 1 1.09,1.14 l 0.27,14.83 q 0.03,1.66 1.69,1.72 z"
     id="path60"
     style="stroke:none;stroke-opacity:1" />
  <path
     fill="#000000"
     d="m 561.65673,84.165013 a 1.54,1.54 0 0 0 -0.84,-1.87 c -2.97,-1.33 -11.44,-3.6 -11.65,-7.34 -0.36,-6.45 6.66,-7.11 11.2,-6.01 q 2.01,0.49 2.35,1.18 1.91,3.84 -1.64,1.44 -0.85,-0.57 -3.68,-0.63 -4.05,-0.09 -4.72,3.51 a 2.21,2.21 0 0 0 1.67,2.56 c 2.63,0.62 6.02,1.01 7.87,2.77 q 2.34,2.23 1.36,5.44 c -1.73,5.72 -6.9,5.57 -11.68,4.14 -1.92,-0.58 -2.41,-2.09 -1.6,-3.82 a 0.65,0.65 0 0 1 1.06,-0.17 c 2.88,3.01 8.83,3.6 10.3,-1.2 z"
     id="path64"
     style="stroke:none;stroke-opacity:1" />
  <path
     fill="#000000"
     d="m 364.95673,88.475013 11.38,0.38 a 0.6,0.6 0 0 1 0.5,0.9 l -0.85,1.47 a 0.6,0.6 0 0 1 -0.52,0.3 l -12.58,-0.05 a 0.6,0.6 0 0 1 -0.6,-0.6 l -0.07,-20.43 a 0.6,0.6 0 0 1 0.58,-0.6 l 13.49,-0.53 a 0.6,0.6 0 0 1 0.63,0.61 l -0.05,2.06 a 0.6,0.6 0 0 1 -0.6,0.59 l -11.5,0.04 a 0.6,0.6 0 0 0 -0.59,0.66 l 0.51,5.04 a 0.6,0.6 0 0 0 0.59,0.54 l 10.99,0.11 a 0.6,0.6 0 0 1 0.59,0.64 l -0.09,1.56 a 0.6,0.6 0 0 1 -0.6,0.56 l -11.15,0.01 a 0.6,0.6 0 0 0 -0.6,0.59 l -0.04,5.54 a 0.6,0.6 0 0 0 0.58,0.61 z"
     id="path65"
     style="stroke:none;stroke-opacity:1" />
  <path
     fill="#000000"
     d="m 383.60673,73.505013 -0.29,0.49 q -1.42,2.39 1.24,3.18 c 3.68,1.1 9.88,2.59 9.88,6.93 0,8.26 -8.12,8.57 -13.74,5.41 a 2.28,2.27 17.3 0 1 -1.14,-2.16 l 0.09,-1.13 q 0.14,-1.78 1.35,-0.46 c 1.96,2.17 9.11,4.06 10.39,-0.03 1.65,-5.3 -11.55,-3.29 -12.27,-9.62 -0.92,-8.09 8.86,-8.02 13.78,-6.29 q 1.18,0.41 1.18,1.66 v 1.92 q 0,1.1 -1.01,0.66 l -4.77,-2.08 q -3.02,-1.31 -4.69,1.52 z"
     id="path66"
     style="stroke:none;stroke-opacity:1" />
  <path
     fill="#000000"
     d="m 401.52673,72.075013 q -1.9,-0.4 -3.65,0.48 a 1.75,1.74 59.7 0 1 -2.24,-0.59 q -0.67,-0.98 -0.3,-2.14 a 1.1,1.1 0 0 1 1.04,-0.75 l 15.02,0.04 q 1.22,0.01 1.39,1.21 l 0.04,0.28 a 0.97,0.97 0 0 1 -0.83,1.1 l -4.35,0.57 a 1.13,1.13 0 0 0 -0.78,0.46 c -2.23,3.05 -1.17,13.38 -1,17.18 a 0.92,0.92 0 0 1 -0.97,0.95 l -1.6,-0.11 q -1.04,-0.06 -1.05,-1.11 l -0.1,-16.82 q -0.01,-0.62 -0.62,-0.75 z"
     id="path67"
     style="stroke:none;stroke-opacity:1" />
  <path
     fill="#000000"
     d="m 429.68673,85.875013 a 3.38,3.42 59.4 0 0 0.44,-1.67 q -0.01,-6.35 0,-12.98 0,-1.16 0.79,-1.88 a 1.3,1.29 51.3 0 1 1.94,0.22 c 1.41,2.02 0.83,4.36 0.35,6.59 -0.96,4.42 1.33,10.02 -2.94,13.45 -4.77,3.84 -14.81,2.19 -14.77,-5.37 q 0.04,-6.84 0.08,-13.49 0,-1.22 1.2,-1.43 l 0.35,-0.06 a 0.81,0.81 0 0 1 0.95,0.76 c 0.17,3.99 -1.11,14.68 2.05,17.27 2.64,2.17 7.76,1.81 9.56,-1.41 z"
     id="path68"
     style="stroke:none;stroke-opacity:1" />
  <path
     fill="#000000"
     d="m 437.81673,70.075013 a 1.22,1.22 0 0 1 1.22,-1.22 h 7.92 a 10.58,10.74 0 0 1 10.58,10.74 v 0.26 a 10.58,10.74 0 0 1 -10.58,10.74 h -7.92 a 1.22,1.22 0 0 1 -1.22,-1.22 z m 3.73,4.53 -0.22,10.37 a 2.85,2.85 0 0 0 2.79,2.91 l 2.24,0.05 a 6.87,7.01 1.2 0 0 7.02,-6.86 l 0.04,-2.06 a 6.87,7.01 1.2 0 0 -6.72,-7.16 l -2.24,-0.04 a 2.85,2.85 0 0 0 -2.91,2.79 z"
     id="path69"
     style="stroke:none;stroke-opacity:1" />
  <path
     fill="#000000"
     d="m 464.18673,89.545013 a 1.22,1.22 0 0 1 -1.24,1.18 l -0.36,-0.01 q -1.51,-0.03 -1.6,-1.53 c -0.2,-3.34 -0.42,-6.28 -0.22,-9.69 q 0.1,-1.78 -0.28,-3.53 a 1.74,1.7 49.7 0 1 0.07,-1.01 q 0.72,-1.96 0.14,-4.02 a 1.62,1.62 0 0 1 2.17,-1.95 q 1.73,0.69 1.71,2.74 -0.08,7.64 -0.39,17.82 z"
     id="path70"
     style="stroke:none;stroke-opacity:1" />
  <path
     fill="#000000"
     d="m 480.83673,83.915013 h -7.22 a 1.83,1.86 12.2 0 0 -1.68,1.1 l -2.1,4.74 q -0.62,1.4 -2.08,0.94 l -0.47,-0.16 a 1.13,1.13 0 0 1 -0.7,-1.53 q 3.72,-8.69 7.19,-17.33 c 1.9,-4.72 5.53,-2.79 6.81,0.93 q 1.23,3.61 2.63,7.17 c 1.12,2.85 3.5,6.01 4.33,9.47 q 0.53,2.22 -1.7,1.73 l -1.29,-0.29 a 3.07,3.09 2.3 0 1 -2.39,-2.6 l -0.45,-3.41 a 0.89,0.89 0 0 0 -0.88,-0.76 z m -1.95,-2.94 a 1.08,1.08 0 0 0 0.96,-1.66 l -2.38,-3.81 a 1.08,1.08 0 0 0 -1.91,0.14 l -1.6,3.65 a 1.08,1.08 0 0 0 0.95,1.52 z"
     id="path71"
     style="stroke:none;stroke-opacity:1" />
  <path
     fill="#000000"
     d="m 505.81673,83.935013 0.07,-12.95 q 0,-1.66 1.63,-1.93 l 0.44,-0.07 q 1.42,-0.24 1.41,1.2 l -0.05,19.17 a 1.3,1.3 0 0 1 -1.55,1.28 q -1.47,-0.28 -2.71,-1.06 -0.46,-0.29 -0.61,-0.81 c -0.4,-1.43 -0.72,-2.35 -1.83,-3.44 q -3.98,-3.95 -7.02,-9.29 -0.65,-1.15 -1.96,-1.29 a 0.47,0.46 3.3 0 0 -0.52,0.46 l -0.07,13.56 a 1.22,1.22 0 0 1 -1.2,1.22 l -1.15,0.02 q -0.98,0.02 -0.98,-0.96 l 0.1,-19.4 a 0.59,0.59 0 0 1 0.53,-0.58 q 2.19,-0.24 4.32,0.24 a 1.22,1.25 83.1 0 1 0.81,0.62 c 1.45,2.73 2.67,4.94 4.88,7.41 q 2.8,3.12 4.78,6.77 a 0.36,0.36 0 0 0 0.68,-0.17 z"
     id="path72"
     style="stroke:none;stroke-opacity:1" />
  <path
     fill="#000000"
     d="m 518.45673,71.955013 q -2.61,-1.08 -5.27,0.06 a 1.27,1.28 64.9 0 1 -1.64,-0.59 c -0.66,-1.32 0.48,-2.39 1.82,-2.39 q 7.94,0.03 15.69,0.02 a 0.58,0.59 2.7 0 1 0.58,0.64 l -0.03,0.28 q -0.11,1.06 -1.16,1.21 l -5.2,0.78 a 0.92,0.92 0 0 0 -0.77,0.87 l -0.57,16.42 q -0.04,1.16 -1.18,0.96 l -0.89,-0.17 a 0.86,0.85 5.3 0 1 -0.7,-0.84 c -0.01,-5.22 -0.93,-11.19 -0.18,-16.39 q 0.09,-0.62 -0.5,-0.86 z"
     id="path73"
     style="stroke:none;stroke-opacity:1" />
  <path
     fill="#000000"
     d="m 534.66673,87.925013 11.51,0.07 a 0.45,0.45 0 0 1 0.37,0.72 l -1.22,1.67 a 0.45,0.45 0 0 1 -0.38,0.19 l -12.8,-0.61 a 0.45,0.45 0 0 1 -0.43,-0.45 l 0.13,-20.03 a 0.45,0.45 0 0 1 0.45,-0.45 l 13.72,-0.03 a 0.45,0.45 0 0 1 0.43,0.56 l -0.31,1.27 a 0.45,0.45 0 0 1 -0.43,0.34 l -10.66,0.09 a 0.45,0.45 0 0 0 -0.45,0.45 l 0.05,6.03 a 0.45,0.45 0 0 0 0.45,0.45 l 11.27,-0.01 a 0.45,0.45 0 0 1 0.44,0.53 l -0.3,1.71 a 0.45,0.45 0 0 1 -0.44,0.37 l -10.3,0.18 a 0.45,0.45 0 0 0 -0.44,0.37 l -1.1,6.05 a 0.45,0.45 0 0 0 0.44,0.53 z"
     id="path74"
     style="stroke:none;stroke-opacity:1" />
  <ellipse
     fill="#000000"
     cx="311.51028"
     cy="116.76894"
     transform="rotate(-5.4)"
     rx="7.0700002"
     ry="6.8000002"
     id="ellipse77"
     style="stroke:none;stroke-opacity:1" />
  <path
     fill="#000000"
     d="m 320.80673,129.49501 -0.41,0.21 q -0.96,0.46 -0.96,1.53 l -0.05,30.27 q 0,3.8 -3.79,3.6 l -1.03,-0.06 a 2.95,2.95 0 0 1 -2.8,-2.96 q 0.14,-25.58 0.13,-50.36 0,-4.45 -0.78,-8.5 a 1.47,1.48 84.8 0 0 -1.44,-1.19 l -21.05,-0.04 a 1,0.98 69.7 0 1 -0.76,-0.36 q -1.27,-1.52 -0.79,-3.189997 c 0.73,-2.54 4.61,-2.62 6.68,-2.17 q 0.47,0.1 0.91,-0.07 1.17,-0.46 2.43,-0.15 a 2.48,2.49 48.3 0 0 0.91,0.05 c 3.87,-0.48 7.57,0.05 11.47,-0.58 1.54,-0.24 3.02,0.37 4.65,-0.11 q 0.48,-0.14 0.97,-0.06 2.01,0.35 4.04,0.25 c 3.98,-0.2 7.58,0.33 11.44,-0.22 1.45,-0.2 2.77,0.35 4.07,0.33 q 8,-0.1 16.99,0.16 a 2.31,2.31 0 0 1 2.25,2.42 l -0.03,0.77 a 3.08,3.08 0 0 1 -3.07,2.939997 l -19.13,0.08 a 1.53,1.54 0 0 0 -1.53,1.54 c -0.01,19.32 0.29,42.89 -0.05,57.1 q -0.04,1.43 -1.23,3.8 -0.26,0.51 -0.83,0.51 l -3.52,0.01 a 1.87,1.87 0 0 1 -1.79,-1.33 q -0.75,-2.52 -0.64,-5.23 0.06,-1.49 -0.14,-4.52 -0.16,-2.29 0.39,-5.48 0.89,-5.19 -0.53,-18.45 a 0.68,0.69 74.2 0 0 -0.98,-0.54 z"
     id="path77"
     style="stroke:none;stroke-opacity:1" />
  <ellipse
     fill="#000000"
     cx="138.0303"
     cy="-492.61932"
     transform="rotate(86.1)"
     rx="5.3800001"
     ry="5.0300002"
     id="ellipse78"
     style="stroke:none;stroke-opacity:1" />
  <path
     fill="#000000"
     d="m 418.56673,122.81501 q 0.2,0.76 0.83,0.29 c 4.69,-3.53 9.63,-7.1 16.24,-5.93 11.41,2.01 15.06,12.15 15.13,22.05 0.07,9.13 -3,18.89 -10.96,24.02 -3.33,2.15 -9.82,2.17 -13.74,1.12 -3.01,-0.81 -5.02,-2.95 -7.53,-4.81 a 0.53,0.54 19 0 0 -0.85,0.42 l -0.08,2.37 a 2.14,2.14 0 0 1 -1.98,2.06 l -1.89,0.14 q -1.84,0.13 -1.81,-1.71 l 0.85,-59.08 q 0.01,-1.07 1.07,-1.05 l 2.98,0.04 a 1.3,1.3 0 0 1 1.28,1.28 q 0.12,7.99 0.13,15.95 0,1.6 0.33,2.84 z m 21.35,33 c 2.23,-2.1 4.89,-7.5 4.91,-10.34 0.06,-7.61 1.37,-14.93 -5.29,-20.42 q -1.75,-1.44 -4.4,-1.85 c -10.91,-1.7 -16.12,5.75 -17.38,15.59 -0.32,2.48 0.2,5.12 0.46,7.66 0.42,4.18 1.5,6.57 4.13,9.45 3.98,4.37 13.47,3.78 17.57,-0.09 z"
     id="path79"
     style="stroke:none;stroke-opacity:1" />
  <path
     fill="#000000"
     d="m 523.55673,162.80501 c -13.79,-6.32 -13.92,-27.87 -6.96,-38.88 2,-3.15 7.85,-6.22 10.51,-7.02 2.28,-0.68 7.98,-0.55 10.67,0.01 14.01,2.91 17.5,18.42 15.23,30.37 -2.65,14.01 -16.41,21.5 -29.45,15.52 z m 24.0519,-26.9632 a 13.41,13.41 0 0 0 -13.5497,-13.2688 l -2.4799,0.026 a 13.41,13.41 0 0 0 -13.2688,13.5497 l 0.0946,9.0395 a 13.41,13.41 0 0 0 13.5497,13.2688 l 2.4799,-0.026 a 13.41,13.41 0 0 0 13.2688,-13.5497 z"
     id="path80"
     style="stroke:none;stroke-opacity:1" />
  <path
     fill="#000000"
     d="m 480.47673,159.78501 c -2.85,2.06 -5.33,4.35 -8.87,4.84 -4.33,0.61 -8.76,0.74 -12.41,-2.1 q -3.04,-2.37 -3.9,-4.54 c -5.67,-14.36 7.26,-17.2 17.18,-20.03 2.5,-0.71 4.8,-1.92 7.18,-2.83 a 2.17,2.18 84.5 0 0 1.38,-1.67 c 0.61,-3.42 0.72,-8.11 -3.51,-9.58 -3.57,-1.25 -5.97,-2.11 -10.25,-0.8 -3.77,1.15 -7.04,4.31 -9.91,6.81 q -1.32,1.15 -1.29,-0.6 l 0.1,-4.34 q 0.03,-1.86 1.64,-2.79 c 5.61,-3.27 9.88,-6.29 16.83,-5.39 5.19,0.68 12.81,4.44 12.95,10.46 q 0.19,7.79 0.1,15.58 c -0.07,5.61 0.38,13.72 -0.15,20.6 q -0.03,0.33 -0.36,0.33 l -4.71,0.03 q -0.21,0 -0.25,-0.2 l -0.64,-3.34 a 0.71,0.71 0 0 0 -1.11,-0.44 z m -5.99,-17.34 c -3.34,0.67 -12.66,3.07 -13.87,6.76 -0.46,1.41 -0.77,6.79 1.29,7.99 3.64,2.12 7.12,1.43 11.13,0.68 6.74,-1.27 8.54,-11.1 8.2,-16.94 q -0.03,-0.47 -0.49,-0.38 c -2.2,0.45 -4.1,1.45 -6.26,1.89 z"
     id="path81"
     style="stroke:none;stroke-opacity:1" />
  <path
     fill="#000000"
     d="m 395.01673,159.84501 q -1.48,0.54 -3.12,2.18 c -3.37,3.37 -10,3.42 -14.59,2.94 q -3.21,-0.35 -5.34,-2.15 c -3.71,-3.14 -6.41,-8.62 -4.51,-13.51 1,-2.58 2.24,-5.37 4.92,-6.59 q 5.74,-2.6 11.01,-3.78 c 5.88,-1.33 17.04,-4.89 9.56,-13.46 -2.13,-2.44 -7.71,-2.59 -10.58,-2.13 -4.46,0.7 -8.61,4.38 -12.07,7.38 a 0.51,0.51 0 0 1 -0.84,-0.33 c -0.44,-3.42 -1.47,-6.27 2.1,-8.47 5,-3.09 10.76,-5.47 16.72,-4.7 q 6.55,0.84 10.92,4.42 c 1.56,1.27 2.13,4.91 2.14,7.26 q 0.08,17.6 0.02,34.9 0,0.68 -0.69,0.68 l -3.93,0.01 a 0.71,0.71 0 0 1 -0.71,-0.66 l -0.28,-3.52 q -0.05,-0.72 -0.73,-0.47 z m -1.04,-18.48 c -6.55,2.14 -13.7,2.56 -18.82,7.16 -2.27,2.04 -1.99,3.96 -0.72,6.45 q 1.97,3.84 5.94,3.84 c 4.73,0.01 11.32,-0.47 12.8,-6.09 q 1.44,-5.49 1.28,-11.02 a 0.37,0.36 80.1 0 0 -0.48,-0.34 z"
     id="path82"
     style="stroke:none;stroke-opacity:1" />
  <path
     fill="#000000"
     d="m 350.59673,122.31501 q 0.93,-0.97 3.41,-3.21 c 4.4,-3.99 15.43,-1.45 12.87,6.73 a 0.84,0.83 33.1 0 1 -1.43,0.3 c -3.78,-4.35 -9.07,-3.63 -12.23,0.93 -2.71,3.9 -3.5,9.65 -3.52,14.27 q -0.03,10.6 0,21.38 0,1.8 -1.8,1.78 l -2.79,-0.03 q -1.74,-0.02 -1.74,-1.76 l 0.01,-43.72 q 0,-0.51 0.49,-0.57 l 3.51,-0.47 a 1.28,1.29 62.9 0 1 1.07,0.34 q 1.55,1.46 1.41,3.7 a 0.43,0.43 0 0 0 0.74,0.33 z"
     id="path83"
     style="stroke:none;stroke-opacity:1" />
  <path
     fill="#000000"
     d="m 495.31673,178.99501 a 2.13,2.13 0 0 0 1.22,-1.56 c 0.35,-2.05 0.84,-4.19 0.84,-6.31 q 0.03,-19.69 0.01,-39.37 c 0,-2.88 0.34,-8.19 -0.04,-12.34 q -0.05,-0.52 0.37,-0.81 2.52,-1.71 5.22,-0.6 0.5,0.2 0.65,0.72 c 1.34,4.38 0.37,8.33 0.58,12.25 q 0.12,2.16 -0.07,4.02 c -0.41,4.26 0.23,8.34 0.05,12.65 -0.19,4.62 0.25,9.22 -0.03,13.77 q -0.38,6.18 -0.22,13.56 c 0.12,5.49 -4.43,11.47 -10.06,12.17 -2.19,0.28 -5.16,-0.5 -7.81,-0.55 a 1.13,1.12 0.3 0 1 -1.11,-1.11 l -0.06,-6.03 q -0.02,-1.29 1.18,-0.8 c 2.65,1.09 6.49,1.58 9.28,0.34 z"
     id="path84"
     style="stroke:none;stroke-opacity:1" />
  <path
     fill="#000000"
     d="m 402.44673,186.78501 q 0.01,0.17 0.18,0.17 v 0 q 0.17,0.01 0.19,-0.16 c 0.28,-2.46 0.31,-4.74 1.55,-6.93 q 1.44,-2.54 3.55,-5.38 c 3.27,-4.42 10.48,-6 15.92,-4.42 q 1.31,0.38 1.49,1.48 c 0.28,1.65 -0.13,4.58 -0.6,6.2 q -0.16,0.55 -0.73,0.67 -2.59,0.55 -4.87,-0.6 -0.46,-0.23 -0.95,-0.12 c -10.21,2.28 -7.35,22.65 5.94,16.93 q 2.83,-1.22 2.73,1.86 l -0.11,3.38 q -0.09,2.85 -2.89,3.41 c -4.16,0.84 -10.86,0.85 -14.54,-1.9 -2.77,-2.07 -5.05,-7.06 -6.31,-10.22 a 0.51,0.51 0 0 0 -0.93,-0.04 c -0.68,1.32 -0.85,3.02 -1.35,4.17 q -4.04,9.34 -15.1,8.72 c -6.07,-0.34 -9.68,-4.73 -11.9,-9.61 a 0.65,0.65 0 0 0 -1.23,0.16 l -0.96,5.66 a 1.64,1.64 0 0 1 -1.03,1.27 c -6.76,2.61 -11.53,4.1 -18.5,1.63 a 1.7,1.7 0 0 1 -1.08,-1.99 l 1.2,-4.97 q 0.36,-1.47 1.81,-1.04 c 3.11,0.92 5.44,1.93 9.14,0.87 a 1.28,1.28 0 0 0 0.64,-2.04 c -2.26,-2.81 -6.81,-4.83 -8.61,-6.16 -3.57,-2.63 -3.76,-8.41 -2.99,-12.26 0.73,-3.64 6.27,-5.27 9.33,-5.8 2.46,-0.42 5.09,0.38 7.81,0.23 a 2.11,2.11 0 0 1 2.23,1.98 q 0.21,3.52 -0.91,6.71 a 0.86,0.87 19.7 0 1 -1.11,0.53 c -2.21,-0.81 -6.25,-2.35 -8.53,-1.22 a 0.9,0.9 0 0 0 -0.2,1.47 q 3.64,3.29 7.05,5.19 3.22,1.8 3.77,3.43 1.36,4 1.07,-0.21 c -0.73,-10.5 9.38,-23.06 21.1,-17.2 2.96,1.48 5.61,2.78 6.79,6.02 q 1.79,4.91 1.94,10.13 z m -14.5529,9.1391 a 9.1,6 89.2 0 0 5.8723,-9.1829 9.1,6 89.2 0 0 -6.1265,-9.0153 9.1,6 89.2 0 0 -5.8723,9.1829 9.1,6 89.2 0 0 6.1265,9.0153 z"
     id="path88"
     style="stroke:none;stroke-opacity:1" />
  <path
     fill="#000000"
     d="m 466.19673,198.93501 a 0.31,0.32 4.1 0 0 0.35,-0.31 l 0.03,-27.57 q 0,-1.47 1.47,-1.49 l 5.61,-0.06 a 1.43,1.43 0 0 1 1.44,1.43 v 24.04 a 0.4,0.4 0 0 0 0.4,0.4 q 4.5,0 9.14,-0.21 c 4.06,-0.19 1.64,5.45 1.37,7.49 a 0.41,0.4 3.1 0 1 -0.41,0.36 q -7.69,-0.02 -15.4,-0.05 c -1.31,0 -3.14,-0.91 -4.9,-0.08 a 1.76,1.73 34.7 0 1 -0.93,0.16 q -3.05,-0.31 -5.97,0.6 a 0.91,0.91 0 0 1 -1.15,-0.65 l -1.64,-6.76 a 2.16,2.15 84.1 0 0 -2.01,-1.64 l -4.24,-0.18 a 1.92,1.91 7.4 0 0 -1.94,1.49 l -1.38,6.12 q -0.11,0.52 -0.61,0.69 -3.43,1.19 -4.56,0.97 -5.45,-1.04 -11.54,-0.59 a 1.33,1.33 0 0 1 -1.43,-1.33 l 0.13,-29.88 a 1.94,1.93 0 0 1 1.94,-1.93 l 5.12,0.01 q 1.96,0 1.96,1.97 v 26.43 q 0,0.21 0.21,0.22 l 0.3,0.02 q 0.13,0.01 0.14,-0.12 c 0.19,-2.98 1.89,-5.45 2.65,-7.49 q 3.46,-9.29 6.1,-19.19 a 2.49,2.49 0 0 1 2.41,-1.85 l 7.79,0.01 a 0.74,0.74 0 0 1 0.69,0.48 q 1.72,4.9 2.83,10.05 c 0.66,3.05 1.69,5.79 2.54,8.73 0.75,2.57 2.27,5.84 2.81,8.96 q 0.12,0.69 0.68,0.75 z m -14.82,-14.92 -0.78,2.25 a 0.73,0.72 13.2 0 0 0.59,0.95 l 0.44,0.06 a 0.56,0.56 0 0 0 0.61,-0.36 q 0.57,-1.57 0.02,-2.93 -0.47,-1.17 -0.88,0.03 z"
     id="path89"
     style="stroke:none;stroke-opacity:1" />
  <path
     fill="#000000"
     d="m 275.59673,163.72501 c -1.27,5.68 -4.24,11.87 -6.58,17.67 q -1.43,3.54 -3.57,6.77 c -3.05,4.6 -5.41,9.19 -9.19,13.43 -2.03,2.27 -3.78,4.83 -5.81,6.89 q -3.73,3.79 -7.61,7.42 c -17.2,16.16 -41.93,27.25 -65.01,31.35 q -34.36,6.1 -68.56,-1.38 c -8.59,-1.88 -17.419998,-5.37 -26.029998,-8.51 -4.25,-1.55 -8.25,-4.31 -12.35,-6.3 q -3.8,-1.85 -7.27,-4.09 c -3.16,-2.05 -6.53,-3.86 -9.4,-5.99 -22.46,-16.72 -38.16,-36.08 -47.4999996,-62.78 -2.24,-6.4 -3.76,-14.98 -4.27,-21.92 -1.2,-16.51 -2.90999999,-30.23 0.88,-44.849997 0.98,-3.76 1.51,-7.64 2.8,-11.16 1.72,-4.68 3.64,-8.16 5.5199996,-12.25 q 1.9,-4.16 3.58,-6.82 c 7.33,-11.64 17.35,-24.21 28.49,-32.14 q 9.8,-6.98 13.43,-8.76 4.64,-2.26 9.23,-4.63 c 7.07,-3.65 14.27,-6.0699999 21.61,-8.6399999 4.16,-1.45 8.53,-1.95 12.909998,-2.94 14.27,-3.25000003 29.87,-3.77000003 45.61,-2.35 6.77,0.61 14.58,2.12 21.92,3.33 7.24,1.19 14.01,3.86 20.88,6.2099999 q 6.46,2.2 11.93,4.9 c 14.18,6.99 27.24,14.33 38.18,25.85 q 2.92,3.08 6.98,7.19 5.67,5.73 10.96,13.3 8.69,12.45 14.64,28.74 2.76,7.57 3.5,12.219997 c 3.11,19.53 4.37,41.12 0.1,60.24 z m -79.44,-100.319997 c -9.02,-3.73 -17.84,-7.33 -27.49,-9.17 q -14.42,-2.73 -29.06,-3.16 -2.28,-0.06 -5.43,0.18 c -4.58,0.36 -9.49,0.39 -13.62,0.91 -10.15,1.29 -20.45,2.49 -29.899998,6.13 q -3.03,1.17 -8.22,3.36 c -5.89,2.48 -11,6.06 -16.34,9.51 -1.61,1.04 -2.77,3.47 -4.61,4.85 -5.31,3.98 -10.09,11.29 -12.36,17.5 a 0.7,0.69 10.5 0 0 0.64,0.93 c 10.79,0.14 21.43,-0.18 32.12,0.26 7.13,0.3 14.84,-0.21 22.309998,0.2 2.28,0.12 4.67,-0.43 6.68,-0.43 q 32.13,-0.04 64.27,-0.01 c 2.98,0 5.55,-0.87 8.56,-0.42 q 6.55,0.96 9.93,0.25 4.81,-1 6.74,-0.59 7.02,1.52 14.09,0.12 c 2.05,-0.41 4.9,0.68 7.22,0.52 q 3.36,-0.24 6.71,-0.66 a 0.59,0.59 0 0 0 0.44,-0.88 q -1.51,-2.67 -3.24,-5.28 c -1.98,-2.99 -5.06,-5.71 -7.39,-8.87 -2.34,-3.17 -8.12,-7.22 -12.63,-9.83 -3.19,-1.84 -6.07,-4.04 -9.42,-5.42 z m -2.84,107.289997 -1.01,0.01 q -3.55,0.02 -3.59,-3.53 -0.28,-28.68 -0.19,-56.2 0.01,-4.55 -0.66,-8.69 a 0.8,0.79 84.9 0 0 -0.79,-0.67 l -37.84,0.4 a 1.36,1.37 89.6 0 0 -1.35,1.36 l 0.02,63.33 q 0.01,4.01 -4.01,4.02 h -0.95 a 3.15,3.15 0 0 1 -3.15,-3.06 q -0.13,-4.84 -0.51,-9.25 c -0.44,-5.18 0.69,-10.34 0.11,-15.73 -0.38,-3.6 0.55,-7.15 -0.82,-10.97 q -0.17,-0.46 -0.66,-0.41 -1.85,0.19 -1.84,1.93 0.06,15.93 0.03,33.79 0,3.69 -3.68,3.92 l -0.98,0.06 a 2.85,2.86 88 0 1 -3.03,-2.82 l -0.68,-64.75 a 1.39,1.39 0 0 0 -1.39,-1.38 q -17.11,-0.07 -33.219998,-0.06 -2.17,0 -3.62,0.7 a 1.54,1.55 79.7 0 0 -0.87,1.25 q -0.98,10.65 -0.85,21.28 0.25,19.87 -0.03,39.75 -0.06,4.26 -2.98,6.25 a 1.2,1.2 0 0 1 -0.94,0.19 c -6.24,-1.34 -4.49,-9.54 -4.41,-13.87 q 0.21,-12.19 -0.35,-25.09 a 0.77,0.77 0 0 0 -1.05,-0.68 l -0.37,0.15 a 1.55,1.56 79.2 0 0 -0.97,1.42 q -0.09,16.52 -0.05,32.13 c 0.01,3.74 -4.13,9.68 -7.71,4.08 q -0.73,-1.15 -0.78,-3.01 c -0.35,-13 -0.06,-26.01 -0.33,-39.02 -0.17,-8.12 0.41,-16.43 -0.45,-24.57 a 1,1.01 87.5 0 0 -0.99,-0.9 c -6.67,-0.07 -13.29,-0.33 -19.82,0.61 a 1.78,1.75 1.6 0 0 -1.48,1.38 c -1.43,6.9 -2.78,13.92 -2.86,20.65 q -0.21,18.37 8,34.82 c 1.65,3.3 4.07,6.26 6.25,9.41 2.18,3.14 5.13,5.31 7.72,8.21 1.66,1.86 3.7,2.79 5.61,4.38 5.08,4.23 10.62,6.16 16.26,9.37 q 3.27,1.85 5.81,2.43 c 9.879998,2.27 20.479998,5.12 29.789998,6.28 q 26.96,3.36 53.71,-2.35 c 5.8,-1.24 13.67,-3.06 20.08,-5.92 8.99,-4.01 13.2,-6.41 20.72,-12.6 1.89,-1.55 3.51,-3.65 5.44,-5.38 q 1.77,-1.58 2.88,-3.33 c 2.69,-4.22 5.68,-8.34 7.42,-13.05 q 3.51,-9.49 4.98,-19.48 1.12,-7.61 -0.4,-20.74 -0.81,-6.99 -3.19,-13.6 -0.55,-1.52 -1.91,-1.63 -3.4,-0.27 -7.36,0.09 c -4.95,0.46 -9.65,0.17 -14.54,0.53 q -0.54,0.04 -0.56,0.58 -1.01,27.43 -0.06,54.86 c 0.08,2.23 -0.59,3.86 -0.27,6.23 0.51,3.73 -1.91,9.3 -6.64,5.83 -3.55,-2.62 -1.62,-14.72 -1.67,-18.62 -0.09,-6.49 0.03,-11.89 -0.37,-17.82 q -0.06,-0.95 -0.34,-1.38 -0.5,-0.78 -1.54,-0.57 a 0.96,0.98 89.4 0 0 -0.77,0.77 q -0.79,4.14 -0.62,8.15 c 0.16,3.62 -0.63,7.48 0.23,11.31 q 0.11,0.5 -0.02,0.99 c -0.87,3.16 0.04,6.18 -0.26,9.03 q -0.26,2.47 -0.59,6.7 a 2.71,2.72 2.2 0 1 -2.69,2.5 z"
     id="path51"
     style="stroke:none" />
  <circle
     fill="#000000"
     cx="198.55673"
     cy="84.765022"
     r="7.8299999"
     id="circle76"
     style="stroke:none;stroke-opacity:1" />
  <rect
     fill="#000000"
     x="69.742203"
     y="77.471352"
     transform="rotate(-0.3)"
     width="15.28"
     height="15.26"
     rx="6.5599999"
     id="rect76"
     style="stroke:none;stroke-opacity:1" />
  <rect
     fill="#000000"
     x="125.65445"
     y="84.708626"
     transform="rotate(-3.1)"
     width="14.92"
     height="15.02"
     rx="6.4299998"
     id="rect77"
     style="stroke:none;stroke-opacity:1" />
</svg>
